<?xml version="1.0" encoding="UTF-8" standalone="no" ?>
<!DOCTYPE svg PUBLIC "-//W3C//DTD SVG 1.1//EN" "http://www.w3.org/Graphics/SVG/1.1/DTD/svg11.dtd">
<svg xmlns="http://www.w3.org/2000/svg" xmlns:xlink="http://www.w3.org/1999/xlink" version="1.1" width="1280" height="1024" viewBox="0 0 1280 1024" xml:space="preserve">
<desc>Created with Fabric.js 3.6.3</desc>
<defs>
</defs>
<g transform="matrix(1.9692780337941629 0 0 1.9692780337941629 640.0153846153846 512.012312418764)" id="background-logo"  >
<rect style="stroke: none; stroke-width: 1; stroke-dasharray: none; stroke-linecap: butt; stroke-dashoffset: 0; stroke-linejoin: miter; stroke-miterlimit: 4; fill: rgb(27,32,32); fill-rule: nonzero; opacity: 1;"  paint-order="stroke"  x="-325" y="-260" rx="0" ry="0" width="650" height="520" />
</g>
<g transform="matrix(1.4174456974721392 0 0 1.4174456974721392 640.0153846153845 444.7312587754154)" id="logo-logo"  >
<g style=""  paint-order="stroke"   >
		<g transform="matrix(0.6623367883049517 0 0 -0.6623367883049517 0 0)"  >
<linearGradient id="SVGID_23604" gradientUnits="userSpaceOnUse" gradientTransform="matrix(1 0 0 1 -13.564999999999998 -112.95)"  x1="0" y1="0" x2="0" y2="435">
<stop offset="0%" style="stop-color:rgb(66,230,149);stop-opacity: 1"/>
<stop offset="100%" style="stop-color:rgb(59,178,184);stop-opacity: 1"/>
</linearGradient>
<path style="stroke: none; stroke-width: 1; stroke-dasharray: none; stroke-linecap: butt; stroke-dashoffset: 0; stroke-linejoin: miter; stroke-miterlimit: 4; fill: url(#SVGID_23604); fill-rule: nonzero; opacity: 1;"  paint-order="stroke"  transform=" translate(-128.59699999999998, -104.63949999999998)" d="m 0 0 c 0 5.101 2.369 9.603 6.011 12.622 c 2.85 2.363 6.461 3.841 10.453 3.841 c 3.974 0 7.571 -1.466 10.416 -3.812 C 30.543 9.633 32.927 5.117 32.927 0 c 0 -5.118 -2.384 -9.633 -6.047 -12.653 c -2.845 -2.345 -6.442 -3.811 -10.416 -3.811 c -3.992 0 -7.603 1.479 -10.453 3.841 C 2.369 -9.603 0 -5.102 0 0 m 78.286 73.029 c 2.784 2.157 6.235 3.492 10.03 3.492 c 4.172 0 7.937 -1.601 10.839 -4.16 c 3.422 -3.016 5.624 -7.382 5.624 -12.303 c 0 -4.92 -2.202 -9.287 -5.624 -12.303 c -2.902 -2.559 -6.667 -4.161 -10.839 -4.161 c -3.795 0 -7.246 1.336 -10.03 3.493 c -3.888 3.011 -6.434 7.673 -6.434 12.971 c 0 5.298 2.546 9.96 6.434 12.971 m 79.236 -144.072 c 2.957 2.826 6.943 4.585 11.356 4.585 c 3.538 0 6.797 -1.14 9.48 -3.039 c 4.214 -2.982 6.983 -7.869 6.983 -13.424 c 0 -5.555 -2.769 -10.443 -6.983 -13.425 c -2.683 -1.899 -5.942 -3.039 -9.48 -3.039 c -4.413 0 -8.399 1.76 -11.356 4.586 c -3.134 2.998 -5.108 7.198 -5.108 11.878 c 0 4.68 1.974 8.88 5.108 11.878 m 72.259 74.364 c 2.914 2.615 6.726 4.251 10.949 4.251 c 3.735 0 7.14 -1.291 9.903 -3.387 c 3.962 -3.007 6.56 -7.719 6.56 -13.077 c 0 -5.356 -2.598 -10.069 -6.56 -13.076 c -2.763 -2.095 -6.168 -3.386 -9.903 -3.386 c -4.223 0 -8.035 1.635 -10.949 4.25 c -3.36 3.013 -5.514 7.343 -5.514 12.212 c 0 4.871 2.154 9.2 5.514 12.213 M -13.565 0 c 0 -12.894 8.166 -23.798 19.576 -28.054 c 3.266 -1.218 6.761 -1.975 10.453 -1.975 c 3.678 0 7.159 0.754 10.416 1.965 c 11.428 4.245 19.613 15.157 19.613 28.064 c 0 12.906 -8.185 23.818 -19.613 28.063 V 198.975 C 45.379 183.933 73.127 161.381 78.286 157.173 V 88.242 C 66.659 84.1 58.287 73.106 58.287 60.058 c 0 -13.048 8.372 -24.042 19.999 -28.185 c 3.151 -1.122 6.494 -1.845 10.03 -1.845 c 3.834 0 7.468 0.787 10.839 2.097 c 11.212 4.355 19.19 15.182 19.19 27.933 c 0 12.751 -7.978 23.577 -19.19 27.932 v 79.1 v 109.11 c 19.918 -17.489 53.359 -46.84 58.367 -51.222 V 113.682 V -55.148 c -10.948 -4.482 -18.673 -15.212 -18.673 -27.773 c 0 -12.561 7.725 -23.291 18.673 -27.773 c 3.507 -1.435 7.332 -2.256 11.356 -2.256 c 3.334 0 6.483 0.671 9.48 1.674 c 11.91 3.986 20.549 15.104 20.549 28.355 c 0 13.25 -8.639 24.368 -20.549 28.355 v 158.331 c 5.193 4.207 32.924 26.762 51.423 41.806 V 19.008 C 218.626 14.624 210.7 3.819 210.7 -8.892 c 0 -12.711 7.926 -23.515 19.081 -27.898 c 3.4 -1.336 7.075 -2.131 10.949 -2.131 c 3.49 0 6.788 0.712 9.903 1.806 c 11.691 4.107 20.126 15.129 20.126 28.223 c 0 13.096 -8.435 24.118 -20.126 28.224 V 189.4 l -72.275 -58.772 v 103.8 L 78.286 322.229 V 184.041 L 6.011 242.809 V 28.053 C -5.399 23.797 -13.565 12.893 -13.565 0" stroke-linecap="round" />
</g>
</g>
</g>
<g transform="matrix(1.9692780337941629 0 0 1.9692780337941629 640.4490488698968 689.9377508605501)" id="text-logo-path"  >
<path style="stroke: none; stroke-width: 0; stroke-dasharray: none; stroke-linecap: butt; stroke-dashoffset: 0; stroke-linejoin: miter; stroke-miterlimit: 4; fill: rgb(255,255,255); fill-rule: nonzero; opacity: 1;"  paint-order="stroke"  transform=" translate(-62.419999999999995, 15.395)" d="M 2.98 -2.62 L 2.98 -2.62 L 2.98 -26.09 Q 2.98 -26.63 3.18 -27.11 Q 3.38 -27.59 3.73 -27.95 Q 4.08 -28.31 4.56 -28.51 Q 5.04 -28.71 5.61 -28.71 L 5.61 -28.71 L 19.66 -28.71 Q 22.24 -28.71 24.44 -27.81 Q 26.65 -26.91 28.25 -25.31 Q 29.85 -23.72 30.76 -21.51 Q 31.67 -19.3 31.67 -16.7 L 31.67 -16.7 L 31.67 -12.01 Q 31.67 -9.39 30.76 -7.19 Q 29.85 -4.98 28.25 -3.39 Q 26.65 -1.8 24.44 -0.9 Q 22.24 0 19.66 0 L 19.66 0 L 5.61 0 Q 5.04 0 4.56 -0.2 Q 4.08 -0.4 3.73 -0.75 Q 3.38 -1.1 3.18 -1.58 Q 2.98 -2.06 2.98 -2.62 Z M 8.19 -23.5 L 8.19 -5.21 L 19.66 -5.21 Q 21.18 -5.21 22.43 -5.7 Q 23.68 -6.19 24.58 -7.08 Q 25.48 -7.97 25.98 -9.22 Q 26.47 -10.47 26.47 -12.01 L 26.47 -12.01 L 26.47 -16.7 Q 26.47 -18.22 25.98 -19.48 Q 25.48 -20.74 24.58 -21.63 Q 23.68 -22.52 22.43 -23.01 Q 21.18 -23.5 19.66 -23.5 L 19.66 -23.5 L 8.19 -23.5 Z M 34.71 -7.17 L 34.71 -7.17 Q 34.71 -8.25 35.09 -9.51 Q 35.47 -10.77 36.33 -11.84 Q 37.18 -12.91 38.55 -13.63 Q 39.92 -14.35 41.88 -14.35 L 41.88 -14.35 L 51.27 -14.35 L 51.27 -9.39 L 41.88 -9.39 Q 40.82 -9.39 40.24 -8.74 Q 39.66 -8.09 39.66 -7.13 L 39.66 -7.13 Q 39.66 -6.11 40.33 -5.54 Q 41 -4.96 41.92 -4.96 L 41.92 -4.96 L 51.27 -4.96 Q 52.33 -4.96 52.91 -5.61 Q 53.49 -6.25 53.49 -7.21 L 53.49 -7.21 L 53.49 -14.47 Q 53.49 -15.5 52.86 -16.1 Q 52.23 -16.7 51.27 -16.7 L 51.27 -16.7 L 39.84 -16.7 L 39.84 -21.64 L 51.27 -21.64 Q 52.35 -21.64 53.6 -21.26 Q 54.85 -20.88 55.92 -20.03 Q 57 -19.18 57.72 -17.81 Q 58.44 -16.44 58.44 -14.47 L 58.44 -14.47 L 58.44 -7.17 Q 58.44 -6.09 58.06 -4.83 Q 57.68 -3.58 56.83 -2.51 Q 55.97 -1.44 54.6 -0.72 Q 53.23 0 51.27 0 L 51.27 0 L 41.88 0 Q 40.8 0 39.55 -0.38 Q 38.3 -0.76 37.23 -1.61 Q 36.16 -2.46 35.43 -3.83 Q 34.71 -5.21 34.71 -7.17 Z M 81.54 -12.01 L 62.76 -12.01 L 62.76 -16.7 L 81.54 -16.7 L 81.54 -12.01 Z M 92.09 0 L 86.88 0 L 86.88 -26.09 Q 86.88 -26.63 87.08 -27.11 Q 87.29 -27.59 87.64 -27.95 Q 87.99 -28.31 88.47 -28.51 Q 88.95 -28.71 89.51 -28.71 L 89.51 -28.71 L 112.95 -28.71 L 112.95 -23.5 L 92.09 -23.5 L 92.09 0 Z M 110.63 -11.73 L 94.17 -11.73 L 94.17 -16.98 L 110.63 -16.98 L 110.63 -11.73 Z M 121.86 0 L 116.65 0 L 116.65 -21.64 L 121.86 -21.64 L 121.86 0 Z M 121.86 -26.09 L 116.65 -26.09 L 116.65 -30.79 L 121.86 -30.79 L 121.86 -26.09 Z" stroke-linecap="round" />
</g>
<g transform="matrix(1.9692780337941629 0 0 1.9692780337941629 640.446164185277 755.107502074068)" id="tagline-c08e5964-5147-472d-ac70-e83f3d87e78d-logo-path"  >
<path style="stroke: none; stroke-width: 0; stroke-dasharray: none; stroke-linecap: butt; stroke-dashoffset: 0; stroke-linejoin: miter; stroke-miterlimit: 4; fill: rgb(255,255,255); fill-rule: nonzero; opacity: 1;"  paint-order="stroke"  transform=" translate(-41.580000000000005, 4.9)" d="M 0.99 -2.5 L 0.99 -2.5 L 0.99 -8.91 Q 0.99 -9.09 1.06 -9.26 Q 1.13 -9.42 1.25 -9.54 Q 1.37 -9.67 1.53 -9.73 Q 1.7 -9.8 1.89 -9.8 L 1.89 -9.8 L 9.89 -9.8 L 9.89 -8.03 L 2.77 -8.03 L 2.77 -2.5 Q 2.77 -2.15 2.95 -1.96 Q 3.14 -1.78 3.49 -1.78 L 3.49 -1.78 L 9.89 -1.78 L 9.89 0 L 3.48 0 Q 3.11 0 2.67 -0.13 Q 2.24 -0.26 1.86 -0.56 Q 1.49 -0.85 1.24 -1.33 Q 0.99 -1.8 0.99 -2.5 Z M 9.09 -4.01 L 3.48 -4.01 L 3.48 -5.8 L 9.09 -5.8 L 9.09 -4.01 Z M 10.9 -2.45 L 10.9 -2.45 Q 10.9 -2.82 11.03 -3.25 Q 11.16 -3.68 11.45 -4.04 Q 11.74 -4.41 12.21 -4.66 Q 12.67 -4.9 13.34 -4.9 L 13.34 -4.9 L 16.55 -4.9 L 16.55 -3.21 L 13.34 -3.21 Q 12.98 -3.21 12.78 -2.98 Q 12.58 -2.76 12.58 -2.43 L 12.58 -2.43 Q 12.58 -2.08 12.81 -1.89 Q 13.04 -1.7 13.36 -1.7 L 13.36 -1.7 L 16.55 -1.7 Q 16.91 -1.7 17.11 -1.91 Q 17.31 -2.13 17.31 -2.46 L 17.31 -2.46 L 17.31 -4.94 Q 17.31 -5.29 17.09 -5.5 Q 16.88 -5.7 16.55 -5.7 L 16.55 -5.7 L 12.65 -5.7 L 12.65 -7.39 L 16.55 -7.39 Q 16.92 -7.39 17.35 -7.26 Q 17.77 -7.13 18.14 -6.84 Q 18.5 -6.55 18.75 -6.08 Q 19 -5.61 19 -4.94 L 19 -4.94 L 19 -2.45 Q 19 -2.08 18.87 -1.65 Q 18.74 -1.22 18.45 -0.86 Q 18.16 -0.49 17.69 -0.25 Q 17.22 0 16.55 0 L 16.55 0 L 13.34 0 Q 12.97 0 12.55 -0.13 Q 12.12 -0.26 11.75 -0.55 Q 11.39 -0.84 11.14 -1.31 Q 10.9 -1.78 10.9 -2.45 Z M 22.25 0 L 20.47 0 L 20.47 -4.9 Q 20.47 -5.36 20.59 -5.72 Q 20.71 -6.08 20.9 -6.36 Q 21.1 -6.64 21.35 -6.83 Q 21.6 -7.03 21.88 -7.15 Q 22.16 -7.27 22.44 -7.33 Q 22.72 -7.39 22.97 -7.39 L 22.97 -7.39 L 26.98 -7.39 L 26.98 -5.61 L 22.98 -5.61 Q 22.62 -5.61 22.44 -5.43 Q 22.25 -5.25 22.25 -4.9 L 22.25 -4.9 L 22.25 0 Z M 29.93 0 L 28.15 0 L 28.15 -6.51 Q 28.15 -6.69 28.22 -6.85 Q 28.29 -7.01 28.41 -7.13 Q 28.53 -7.25 28.7 -7.32 Q 28.86 -7.39 29.05 -7.39 L 29.05 -7.39 L 33.05 -7.39 Q 33.39 -7.39 33.76 -7.31 Q 34.13 -7.24 34.5 -7.07 Q 34.86 -6.9 35.19 -6.65 Q 35.53 -6.39 35.78 -6.03 Q 36.04 -5.66 36.19 -5.18 Q 36.34 -4.7 36.34 -4.1 L 36.34 -4.1 L 36.34 0 L 34.56 0 L 34.56 -4.1 Q 34.56 -4.45 34.44 -4.73 Q 34.32 -5 34.12 -5.2 Q 33.91 -5.4 33.64 -5.51 Q 33.36 -5.61 33.04 -5.61 L 33.04 -5.61 L 29.93 -5.61 L 29.93 0 Z M 44.23 0 L 42.45 0 L 42.45 -6.51 Q 42.45 -6.69 42.52 -6.85 Q 42.59 -7.01 42.71 -7.13 Q 42.83 -7.25 43 -7.32 Q 43.16 -7.39 43.35 -7.39 L 43.35 -7.39 L 46.55 -7.39 Q 46.92 -7.39 47.35 -7.26 Q 47.77 -7.13 48.15 -6.84 L 48.15 -6.84 L 48.15 -7.39 L 50.56 -7.39 Q 50.81 -7.39 51.09 -7.33 Q 51.37 -7.27 51.65 -7.15 Q 51.93 -7.03 52.18 -6.83 Q 52.43 -6.64 52.62 -6.36 Q 52.81 -6.08 52.93 -5.72 Q 53.05 -5.36 53.05 -4.9 L 53.05 -4.9 L 53.05 0 L 51.27 0 L 51.27 -4.9 Q 51.27 -5.25 51.1 -5.43 Q 50.92 -5.61 50.56 -5.61 L 50.56 -5.61 L 48.96 -5.61 Q 49.05 -5.28 49.05 -4.9 L 49.05 -4.9 L 49.05 0 L 47.27 0 L 47.27 -4.9 Q 47.27 -5.25 47.09 -5.43 Q 46.9 -5.61 46.54 -5.61 L 46.54 -5.61 L 44.23 -5.61 L 44.23 0 Z M 54.53 -2.5 L 54.53 -2.5 L 54.53 -4.9 Q 54.53 -5.58 54.78 -6.06 Q 55.03 -6.54 55.4 -6.83 Q 55.77 -7.13 56.21 -7.26 Q 56.65 -7.39 57.02 -7.39 L 57.02 -7.39 L 60.22 -7.39 Q 60.91 -7.39 61.39 -7.14 Q 61.87 -6.9 62.16 -6.52 Q 62.45 -6.15 62.59 -5.71 Q 62.72 -5.28 62.72 -4.9 L 62.72 -4.9 L 62.72 -2.5 Q 62.72 -2.04 62.6 -1.67 Q 62.49 -1.31 62.3 -1.03 Q 62.1 -0.75 61.85 -0.56 Q 61.6 -0.36 61.32 -0.24 Q 61.04 -0.12 60.76 -0.06 Q 60.48 0 60.22 0 L 60.22 0 L 57.02 0 Q 56.65 0 56.21 -0.13 Q 55.77 -0.26 55.4 -0.56 Q 55.03 -0.85 54.78 -1.33 Q 54.53 -1.8 54.53 -2.5 Z M 56.31 -4.9 L 56.31 -2.5 Q 56.31 -2.15 56.49 -1.96 Q 56.68 -1.78 57.03 -1.78 L 57.03 -1.78 L 60.22 -1.78 Q 60.59 -1.78 60.76 -1.96 Q 60.94 -2.15 60.94 -2.5 L 60.94 -2.5 L 60.94 -4.89 Q 60.94 -5.26 60.76 -5.43 Q 60.57 -5.61 60.22 -5.61 L 60.22 -5.61 L 57.03 -5.61 Q 56.68 -5.61 56.49 -5.43 Q 56.31 -5.25 56.31 -4.9 L 56.31 -4.9 Z M 65.97 0 L 64.19 0 L 64.19 -4.9 Q 64.19 -5.36 64.31 -5.72 Q 64.42 -6.08 64.62 -6.36 Q 64.81 -6.64 65.06 -6.83 Q 65.32 -7.03 65.59 -7.15 Q 65.87 -7.27 66.15 -7.33 Q 66.44 -7.39 66.68 -7.39 L 66.68 -7.39 L 70.7 -7.39 L 70.7 -5.61 L 66.7 -5.61 Q 66.34 -5.61 66.15 -5.43 Q 65.97 -5.25 65.97 -4.9 L 65.97 -4.9 L 65.97 0 Z M 71.69 -2.45 L 71.69 -2.45 L 71.69 -4.94 Q 71.69 -5.31 71.82 -5.74 Q 71.95 -6.17 72.24 -6.53 Q 72.53 -6.9 73 -7.14 Q 73.47 -7.39 74.14 -7.39 L 74.14 -7.39 L 77.34 -7.39 Q 77.71 -7.39 78.14 -7.26 Q 78.57 -7.13 78.93 -6.84 Q 79.3 -6.55 79.54 -6.08 Q 79.79 -5.61 79.79 -4.94 L 79.79 -4.94 Q 79.79 -4.57 79.66 -4.15 Q 79.53 -3.72 79.24 -3.35 Q 78.95 -2.99 78.48 -2.74 Q 78.01 -2.5 77.34 -2.5 L 77.34 -2.5 L 74.14 -2.5 L 74.14 -4.18 L 77.34 -4.18 Q 77.7 -4.18 77.9 -4.41 Q 78.1 -4.63 78.1 -4.96 L 78.1 -4.96 Q 78.1 -5.3 77.88 -5.5 Q 77.66 -5.7 77.34 -5.7 L 77.34 -5.7 L 74.14 -5.7 Q 73.77 -5.7 73.58 -5.48 Q 73.38 -5.26 73.38 -4.93 L 73.38 -4.93 L 73.38 -2.45 Q 73.38 -2.09 73.6 -1.89 Q 73.82 -1.7 74.15 -1.7 L 74.15 -1.7 L 77.34 -1.7 L 77.34 0 L 74.14 0 Q 73.77 0 73.34 -0.13 Q 72.91 -0.26 72.55 -0.55 Q 72.18 -0.84 71.93 -1.31 Q 71.69 -1.78 71.69 -2.45 Z M 80.41 -0.9 L 80.41 -0.9 Q 80.41 -1.07 80.48 -1.23 Q 80.55 -1.39 80.67 -1.51 Q 80.79 -1.63 80.95 -1.71 Q 81.11 -1.78 81.29 -1.78 L 81.29 -1.78 Q 81.47 -1.78 81.63 -1.71 Q 81.79 -1.63 81.91 -1.51 Q 82.03 -1.39 82.1 -1.23 Q 82.17 -1.07 82.17 -0.9 L 82.17 -0.9 Q 82.17 -0.71 82.1 -0.55 Q 82.03 -0.39 81.91 -0.27 Q 81.79 -0.15 81.63 -0.08 Q 81.47 -0.01 81.29 -0.01 L 81.29 -0.01 Q 81.11 -0.01 80.95 -0.08 Q 80.79 -0.15 80.67 -0.27 Q 80.55 -0.39 80.48 -0.55 Q 80.41 -0.71 80.41 -0.9 Z" stroke-linecap="round" />
</g>
</svg>